<svg xmlns="http://www.w3.org/2000/svg" version="1.1" xmlns:xlink="http://www.w3.org/1999/xlink" xmlns:svgjs="http://svgjs.dev/svgjs" width="256" height="256"><svg width="256" height="256" viewBox="0 0 256 256" fill="none" xmlns="http://www.w3.org/2000/svg">
<rect width="256" height="256" rx="36" fill="#02060A"></rect>
<path fill-rule="evenodd" clip-rule="evenodd" d="M91.8627 39C84.146 39 77.8904 45.2556 77.8904 52.9723C77.8904 58.9782 81.6797 64.099 86.9979 66.0745L86.9979 86.9817L66.078 86.9817C64.1052 81.6584 58.9818 77.8646 52.9723 77.8646C45.2556 77.8646 39 84.1202 39 91.8369C39 99.5536 45.2556 105.809 52.9723 105.809C58.9783 105.809 64.0992 102.02 66.0746 96.7014L86.9979 96.7015L86.998 151.033C81.6797 153.009 77.8904 158.13 77.8904 164.135C77.8904 166.214 78.3441 168.186 79.1578 169.958L58.8011 190.315C57.027 189.5 55.0528 189.045 52.9723 189.045C45.2556 189.045 39 195.3 39 203.017C39 210.734 45.2556 216.99 52.9723 216.99C60.6891 216.99 66.9447 210.734 66.9447 203.017C66.9447 200.936 66.4899 198.962 65.6742 197.188L86.0274 176.835C87.8032 177.652 89.7797 178.108 91.8627 178.108C97.8687 178.108 102.99 174.318 104.965 169L159.287 169L159.287 189.912C153.964 191.886 150.172 197.008 150.172 203.017C150.172 210.734 156.427 216.989 164.144 216.989C171.861 216.989 178.116 210.734 178.116 203.017C178.116 197.01 174.326 191.889 169.007 189.914L169.006 169L189.925 169C191.901 174.318 197.022 178.108 203.028 178.108C210.744 178.108 217 171.852 217 164.135C217 156.419 210.744 150.163 203.028 150.163C197.018 150.163 191.895 153.957 189.922 159.28L169.006 159.28L169.006 104.94C174.326 102.965 178.116 97.8437 178.116 91.8369C178.116 89.7642 177.665 87.797 176.855 86.028L197.206 65.6776C198.978 66.4911 200.95 66.9447 203.028 66.9447C210.744 66.9447 217 60.689 217 52.9723C217 45.2556 210.744 39 203.028 39C195.311 39 189.055 45.2556 189.055 52.9723C189.055 55.0556 189.511 57.0325 190.329 58.8085L169.993 79.1441C168.214 78.3228 166.232 77.8646 164.144 77.8646C158.135 77.8646 153.011 81.6584 151.038 86.9817L96.7177 86.9817L96.7177 66.0781C102.041 64.1053 105.835 58.9819 105.835 52.9723C105.835 45.2556 99.5794 39 91.8627 39ZM96.7177 151.03L96.7177 96.7015L151.042 96.7015C152.455 100.507 155.48 103.53 159.287 104.942L159.287 159.28L104.968 159.28C103.556 155.469 100.529 152.442 96.7177 151.03Z" fill="white"></path>
</svg><style>@media (prefers-color-scheme: light) { :root { filter: none; } }
@media (prefers-color-scheme: dark) { :root { filter: none; } }
</style></svg>