<svg width="130" height="21" viewBox="0 0 130 21" fill="none" xmlns="http://www.w3.org/2000/svg"><path d="M11.54 9.916c.29.734.43 1.52.408 2.31v8.466H8.523v-7.81c.01-.43-.053-.86-.184-1.268a2.54 2.54 0 0 0-.489-.777 1.883 1.883 0 0 0-.693-.43 3.11 3.11 0 0 0-.877-.122 3.428 3.428 0 0 0-1.142.184 2.16 2.16 0 0 0-.877.593 2.949 2.949 0 0 0-.612 1.083 5.777 5.777 0 0 0-.224 1.677v6.87H0V7.299h3.425v.9c.236-.199.488-.377.755-.532a5.628 5.628 0 0 1 2.772-.674 5.73 5.73 0 0 1 1.876.306 4.275 4.275 0 0 1 1.611.96 4.36 4.36 0 0 1 1.101 1.657zm15.23 1.615a9.42 9.42 0 0 1 .347 2.495v1.37h-9.766c.037.231.12.454.245.654.181.375.447.704.774.961.34.279.726.494 1.142.634.439.156.9.232 1.366.225a2.831 2.831 0 0 0 1.59-.41c.515-.329.97-.743 1.346-1.226l.346-.409 2.61 2.004-.326.45c-1.407 1.799-3.385 2.719-5.873 2.719a7.45 7.45 0 0 1-2.834-.531 6.102 6.102 0 0 1-2.18-1.493 6.692 6.692 0 0 1-1.367-2.228 7.985 7.985 0 0 1-.469-2.74c-.002-.944.17-1.88.51-2.76a6.875 6.875 0 0 1 1.447-2.228 6.58 6.58 0 0 1 2.181-1.493 7.071 7.071 0 0 1 2.732-.531c1.183 0 2.181.204 3.018.633a5.904 5.904 0 0 1 2.018 1.635 6.25 6.25 0 0 1 1.142 2.27h.002zm-3.282.9a7.187 7.187 0 0 0-.163-.696 2.454 2.454 0 0 0-.55-.92 2.2 2.2 0 0 0-.897-.614 3.5 3.5 0 0 0-2.672.041c-.383.168-.73.411-1.02.715-.278.282-.5.615-.652.982a2.308 2.308 0 0 0-.162.49h6.116v.002zm11.499 5.214a3.433 3.433 0 0 1-.775.081 1.406 1.406 0 0 1-.693-.143 1.074 1.074 0 0 1-.326-.409 2.057 2.057 0 0 1-.143-.736c-.021-.327-.041-.654-.041-.982v-5.03h3.344V7.298h-3.344V3.863h-3.425v3.435h-2.162v3.128h2.162v5.848c-.004.512.024 1.025.081 1.534a3.73 3.73 0 0 0 .47 1.575c.318.515.778.927 1.325 1.185.571.287 1.325.43 2.324.43.368-.004.736-.03 1.1-.082a3.545 3.545 0 0 0 1.264-.409l.286-.143V16.95l-.836.49a1.96 1.96 0 0 1-.612.206zm16.841-6.4a8.2 8.2 0 0 1 .47 2.76 7.917 7.917 0 0 1-.47 2.72 6.682 6.682 0 0 1-1.365 2.228 6.263 6.263 0 0 1-2.162 1.513 7.225 7.225 0 0 1-2.793.53 6.249 6.249 0 0 1-2.63-.592 4.145 4.145 0 0 1-1.122-.695v.982H38.33V0h3.425v8.26c.32-.258.67-.478 1.04-.655a6.273 6.273 0 0 1 2.711-.613 7.243 7.243 0 0 1 2.793.53c.812.35 1.546.858 2.162 1.494a7.288 7.288 0 0 1 1.365 2.228h.002zm-3.364 1.227a3.021 3.021 0 0 0-.693-1.165 3.231 3.231 0 0 0-1.08-.757 4.122 4.122 0 0 0-2.916 0 3.211 3.211 0 0 0-1.08.757c-.31.335-.546.733-.693 1.165a4.503 4.503 0 0 0-.245 1.534c-.005.521.077 1.04.245 1.534.152.425.387.814.693 1.145.299.33.669.589 1.08.757.935.38 1.981.38 2.915 0a2.94 2.94 0 0 0 1.08-.757c.313-.326.55-.717.694-1.145.167-.493.25-1.013.245-1.534a4.559 4.559 0 0 0-.245-1.534zm17.209 6.502a7.223 7.223 0 0 1-10.032 0 7.064 7.064 0 0 1-2.038-4.969 6.97 6.97 0 0 1 4.282-6.46 7.24 7.24 0 0 1 5.546 0 7.015 7.015 0 0 1 4.282 6.46 7.067 7.067 0 0 1-2.038 4.969h-.002zm-1.795-6.502a3.26 3.26 0 0 0-.672-1.165 3.42 3.42 0 0 0-1.08-.757 4.19 4.19 0 0 0-2.936 0 3.42 3.42 0 0 0-1.08.757 3.259 3.259 0 0 0-.673 1.165 4.047 4.047 0 0 0-.265 1.534 4.193 4.193 0 0 0 .265 1.534c.146.423.374.813.672 1.145.303.326.672.584 1.08.757a3.905 3.905 0 0 0 2.937 0c.41-.173.777-.43 1.08-.757.298-.332.527-.722.672-1.145a4.57 4.57 0 0 0 0-3.068zM81.045 7.3h-4.2l-2.63 3.926-2.671-3.926H67.14l4.77 6.276-5.382 7.116h4.26l3.324-4.744 3.344 4.744h4.383l-5.383-7.115 4.587-6.277h.002z" fill="#fff"/><path d="M85.652 0h3.425V20.69h-3.425V0zm16.904 20.078l.061.613h-3.181l-.04-.51c-.022-.164-.022-.328-.041-.491a4.7 4.7 0 0 1-1.142.777c-1.422.591-3 .693-4.485.286a4.726 4.726 0 0 1-1.53-.798 4.1 4.1 0 0 1-1.08-1.35 4.373 4.373 0 0 1-.388-1.84c-.03-.81.19-1.61.632-2.29a4.45 4.45 0 0 1 1.63-1.492 7.26 7.26 0 0 1 2.325-.777c.893-.168 1.802-.251 2.711-.246h1.163a2.98 2.98 0 0 0-.143-.695 2.274 2.274 0 0 0-.428-.655c-.207-.2-.449-.36-.714-.47a2.95 2.95 0 0 0-1.1-.184c-.35-.005-.7.036-1.04.122-.28.07-.553.166-.816.287-.229.109-.447.24-.652.388l-.632.49-.408.307-2.12-2.208.428-.389a6.851 6.851 0 0 1 2.467-1.472 8.044 8.044 0 0 1 2.753-.49 7.517 7.517 0 0 1 2.487.368 5.094 5.094 0 0 1 1.795 1.022c.458.422.819.938 1.06 1.513.21.555.32 1.144.326 1.738v6.276c0 .43 0 .818.021 1.166.021.347.041.695.082 1.002l-.001.002zm-4.058-5.296c-.53 0-1.08.04-1.631.082a6.02 6.02 0 0 0-1.447.327 2.476 2.476 0 0 0-.959.593c-.206.212-.317.5-.305.797 0 .696.081.839.47 1.084.387.245.917.368 1.63.368.476.018.95-.073 1.387-.266a2.33 2.33 0 0 0 .876-.695c.236-.28.41-.608.51-.961.104-.36.159-.73.163-1.104v-.225h-.694zm19.593-3.537c.313.886.472 1.82.469 2.76a7.928 7.928 0 0 1-.469 2.72 6.692 6.692 0 0 1-1.366 2.228 6.265 6.265 0 0 1-2.161 1.513 7.208 7.208 0 0 1-2.773.53 6.339 6.339 0 0 1-2.65-.592 4.136 4.136 0 0 1-1.122-.695v.981h-3.425V0h3.425v8.26c.32-.258.67-.478 1.039-.655a6.293 6.293 0 0 1 2.732-.614 7.2 7.2 0 0 1 2.773.532 6.508 6.508 0 0 1 2.161 1.493 7.304 7.304 0 0 1 1.366 2.228h.001zm-3.364 1.227a3.027 3.027 0 0 0-.693-1.165 3.242 3.242 0 0 0-1.08-.758 4.124 4.124 0 0 0-2.916 0 3.222 3.222 0 0 0-1.08.758 3.292 3.292 0 0 0-.693 1.165 4.494 4.494 0 0 0-.245 1.534c-.005.521.077 1.04.245 1.534.153.425.388.814.693 1.145.299.33.669.589 1.08.757a3.862 3.862 0 0 0 2.916 0 2.947 2.947 0 0 0 1.08-.757 3.08 3.08 0 0 0 .693-1.145c.167-.493.25-1.013.245-1.534a4.547 4.547 0 0 0-.245-1.534zm14.965 2.433a3.464 3.464 0 0 0-.896-1.185 3.955 3.955 0 0 0-1.306-.777c-.477-.193-.968-.35-1.468-.47h-.021l-.938-.185a3.87 3.87 0 0 1-.897-.265 2.264 2.264 0 0 1-.672-.45.571.571 0 0 1-.184-.47.593.593 0 0 1 .327-.553c.358-.188.758-.28 1.162-.265a2.47 2.47 0 0 1 1.223.265 3 3 0 0 1 .856.737l.346.43 2.631-2.004-.265-.43a4.2 4.2 0 0 0-2.08-1.778 6.546 6.546 0 0 0-2.569-.512 6.395 6.395 0 0 0-1.855.266 5.125 5.125 0 0 0-1.651.777 4.067 4.067 0 0 0-1.223 1.35 3.754 3.754 0 0 0-.47 1.942c-.017.601.108 1.197.367 1.738.234.458.569.856.979 1.166.408.303.862.538 1.346.695.463.163.952.306 1.468.43h.021l.877.184c.296.061.583.157.856.286.227.088.43.228.591.41.131.119.199.293.184.47a.511.511 0 0 1-.122.347c-.104.141-.236.26-.388.347a2.713 2.713 0 0 1-.653.225 4.716 4.716 0 0 1-.774.081 2.479 2.479 0 0 1-1.407-.368 7.38 7.38 0 0 1-1.182-.92l-.346-.368-2.549 2.127.306.43a5.513 5.513 0 0 0 2.304 1.88 7.367 7.367 0 0 0 2.875.512 7.596 7.596 0 0 0 1.916-.225 5.083 5.083 0 0 0 1.774-.736 4.48 4.48 0 0 0 1.305-1.39 3.937 3.937 0 0 0 .51-2.066 4.243 4.243 0 0 0-.306-1.677h-.002z" fill="#00F2D4"/></svg>