<svg xmlns="http://www.w3.org/2000/svg" id="Layer_2" data-name="Layer 2" viewBox="0 0 1310.6 211.12"><defs><style> .cls-1 { fill: #00f2d4; } .cls-1, .cls-2 { stroke-width: 0px; } .cls-2 { fill: #fff; } </style></defs><g id="Layer_1-2" data-name="Layer 1"><g><path class="cls-2" d="M116.34,99.69c2.93,7.38,4.33,15.29,4.11,23.23v85.1h-34.53v-78.52c.1-4.32-.53-8.63-1.85-12.74-1.15-2.88-2.83-5.53-4.93-7.81-1.99-1.93-4.37-3.41-6.99-4.32-2.87-.83-5.85-1.24-8.84-1.23-3.91-.04-7.81.59-11.51,1.85-3.39,1.22-6.43,3.27-8.84,5.96-2.81,3.15-4.91,6.86-6.17,10.89-1.58,5.48-2.34,11.16-2.26,16.86v69.06H0V73.38h34.53v9.04c2.38-1.99,4.92-3.78,7.61-5.34,8.58-4.62,18.21-6.95,27.95-6.78,6.43-.03,12.82,1.01,18.91,3.08,6.06,1.98,11.61,5.28,16.24,9.66,4.94,4.62,8.73,10.32,11.1,16.65ZM269.89,115.93c2.28,8.16,3.46,16.6,3.49,25.08v13.77h-98.46c.38,2.33,1.22,4.57,2.47,6.58,1.83,3.77,4.51,7.08,7.81,9.66,3.42,2.8,7.32,4.96,11.51,6.37,4.42,1.57,9.08,2.33,13.77,2.26,5.63.24,11.21-1.19,16.03-4.11,5.19-3.31,9.78-7.48,13.57-12.33l3.49-4.11,26.31,20.14-3.29,4.52c-14.18,18.09-34.12,27.34-59.2,27.34-9.78.09-19.49-1.72-28.57-5.34-8.34-3.34-15.84-8.46-21.99-15.01-6.02-6.49-10.7-14.1-13.77-22.4-3.18-8.83-4.78-18.16-4.73-27.54-.02-9.49,1.72-18.9,5.14-27.75,3.36-8.35,8.32-15.96,14.59-22.4,6.24-6.44,13.72-11.54,21.99-15.01,8.74-3.58,18.1-5.4,27.54-5.34,11.92,0,21.99,2.06,30.42,6.37,7.92,3.9,14.87,9.52,20.35,16.44,5.36,6.74,9.28,14.5,11.51,22.82ZM236.79,124.97c-.43-2.36-.98-4.69-1.64-6.99-1.14-3.45-3.04-6.61-5.55-9.25-2.45-2.78-5.56-4.9-9.04-6.17-8.68-3.42-18.36-3.27-26.93.41-3.87,1.69-7.37,4.13-10.28,7.19-2.81,2.83-5.05,6.18-6.58,9.87-.73,1.58-1.28,3.23-1.64,4.93h61.66ZM352.72,177.39c-2.56.57-5.18.84-7.81.82-2.41.12-4.82-.37-6.99-1.44-1.42-1.08-2.55-2.49-3.29-4.11-.93-2.36-1.42-4.87-1.44-7.4-.21-3.29-.41-6.58-.41-9.87v-50.57h33.71v-31.45h-33.71v-34.53h-34.53v34.53h-21.79v31.45h21.79v58.79c-.04,5.15.24,10.3.82,15.42.38,5.56,1.99,10.97,4.73,15.83,3.21,5.18,7.85,9.32,13.36,11.92,5.76,2.88,13.36,4.32,23.43,4.32,3.71-.04,7.42-.31,11.1-.82,4.47-.56,8.79-1.95,12.74-4.11l2.88-1.44v-34.33l-8.43,4.93c-1.93,1.02-4.01,1.72-6.17,2.06ZM522.51,113.05c3.16,8.91,4.76,18.3,4.73,27.75.04,9.32-1.56,18.57-4.73,27.34-3.07,8.3-7.75,15.92-13.77,22.4-6.1,6.56-13.53,11.74-21.79,15.21-8.94,3.62-18.51,5.44-28.16,5.34-9.17-.04-18.22-2.07-26.52-5.96-4.12-1.71-7.93-4.07-11.31-6.99v9.87h-34.53V0h34.53v83.04c3.23-2.59,6.75-4.8,10.48-6.58,8.54-4.07,17.88-6.18,27.34-6.17,9.65-.09,19.22,1.72,28.16,5.34,8.18,3.52,15.58,8.62,21.79,15.01,5.91,6.58,10.57,14.17,13.77,22.4ZM488.59,125.39c-1.41-4.39-3.8-8.39-6.99-11.72-3.07-3.26-6.78-5.85-10.89-7.61-9.47-3.57-19.92-3.57-29.39,0-4.12,1.76-7.83,4.35-10.89,7.61-3.12,3.37-5.5,7.37-6.99,11.72-1.71,4.96-2.55,10.17-2.47,15.42-.05,5.24.78,10.45,2.47,15.42,1.54,4.27,3.91,8.18,6.99,11.51,3.01,3.32,6.74,5.92,10.89,7.61,9.42,3.83,19.97,3.83,29.39,0,4.16-1.68,7.88-4.28,10.89-7.61,3.15-3.28,5.54-7.21,6.99-11.51,1.68-4.96,2.52-10.18,2.47-15.42.07-5.24-.77-10.46-2.47-15.42ZM662.08,190.75c-28.24,27.15-72.89,27.15-101.13,0-13.17-13.29-20.56-31.24-20.55-49.95-.1-28.4,16.95-54.05,43.17-64.95,17.9-7.4,38.01-7.4,55.91,0,26.14,11,43.15,36.59,43.17,64.95,0,18.71-7.38,36.66-20.55,49.95ZM643.99,125.39c-1.42-4.34-3.73-8.33-6.78-11.72-3.1-3.22-6.8-5.8-10.89-7.61-9.55-3.56-20.05-3.56-29.6,0-4.09,1.81-7.79,4.39-10.89,7.61-3.05,3.39-5.36,7.38-6.78,11.72-1.88,4.92-2.79,10.15-2.67,15.42-.08,5.26.82,10.49,2.67,15.42,1.47,4.25,3.77,8.17,6.78,11.51,3.05,3.28,6.77,5.87,10.89,7.61,9.49,3.84,20.11,3.84,29.6,0,4.13-1.74,7.84-4.33,10.89-7.61,3.01-3.34,5.32-7.26,6.78-11.51,1.75-4.95,2.66-10.16,2.67-15.42,0-5.25-.9-10.47-2.67-15.42ZM817.06,73.38h-42.34l-26.52,39.47-26.93-39.47h-44.4l48.1,63.1-54.27,71.53h42.96l33.5-47.69,33.71,47.69h44.19l-54.27-71.53,46.25-63.1Z"></path><path class="cls-1" d="M863.51,0h34.53v208.02h-34.53V0ZM1033.92,201.85l.62,6.17h-32.07l-.41-5.14c-.21-1.64-.21-3.29-.41-4.93-3.43,3.15-7.31,5.79-11.51,7.81-14.34,5.95-30.25,6.97-45.22,2.88-5.59-1.71-10.81-4.42-15.42-8.02-4.55-3.7-8.27-8.32-10.89-13.57-2.63-5.81-3.97-12.12-3.91-18.5-.31-8.15,1.92-16.19,6.37-23.02,4.13-6.31,9.79-11.47,16.44-15.01,7.31-3.91,15.24-6.55,23.43-7.81,9.01-1.69,18.17-2.52,27.34-2.47h11.72c-.2-2.38-.68-4.72-1.44-6.99-1.05-2.43-2.51-4.65-4.32-6.58-2.08-2.01-4.52-3.62-7.19-4.73-3.55-1.32-7.32-1.94-11.1-1.85-3.53-.05-7.06.37-10.48,1.23-2.82.71-5.57,1.67-8.22,2.88-2.31,1.1-4.51,2.41-6.58,3.91l-6.37,4.93-4.11,3.08-21.38-22.2,4.32-3.91c7.15-6.63,15.63-11.68,24.87-14.8,8.89-3.25,18.28-4.91,27.75-4.93,8.51-.18,16.98,1.07,25.08,3.7,6.67,2.16,12.82,5.65,18.09,10.28,4.62,4.24,8.26,9.43,10.69,15.21,2.12,5.58,3.23,11.5,3.29,17.47v63.1c0,4.32,0,8.22.21,11.72.21,3.49.41,6.99.82,10.07ZM993.01,148.61c-5.34,0-10.89.41-16.44.82-4.98.49-9.88,1.6-14.59,3.29-3.64,1.22-6.94,3.26-9.66,5.96-2.08,2.14-3.2,5.03-3.08,8.02,0,6.99.82,8.43,4.73,10.89,3.91,2.47,9.25,3.7,16.44,3.7,4.8.19,9.58-.73,13.98-2.67,3.47-1.58,6.5-3.97,8.84-6.99,2.38-2.82,4.13-6.11,5.14-9.66,1.05-3.61,1.6-7.34,1.64-11.1v-2.26h-6.99ZM1190.54,113.05c3.16,8.91,4.76,18.3,4.73,27.75.04,9.32-1.56,18.57-4.73,27.34-3.07,8.3-7.75,15.92-13.77,22.4-6.1,6.56-13.53,11.74-21.79,15.21-8.88,3.6-18.38,5.42-27.95,5.34-9.23-.04-18.35-2.07-26.72-5.96-4.12-1.71-7.93-4.07-11.31-6.99v9.87h-34.53V0h34.53v83.04c3.23-2.59,6.75-4.8,10.48-6.58,8.6-4.1,18.02-6.2,27.54-6.17,9.58-.08,19.08,1.74,27.95,5.34,8.21,3.47,15.62,8.58,21.79,15.01,5.91,6.58,10.57,14.17,13.77,22.4ZM1156.63,125.39c-1.41-4.39-3.8-8.39-6.99-11.72-3.07-3.26-6.78-5.85-10.89-7.61-9.47-3.57-19.92-3.57-29.39,0-4.12,1.76-7.83,4.35-10.89,7.61-3.12,3.37-5.5,7.37-6.99,11.72-1.71,4.96-2.55,10.17-2.47,15.42-.05,5.24.78,10.45,2.47,15.42,1.54,4.27,3.91,8.18,6.99,11.51,3.01,3.32,6.74,5.92,10.89,7.61,9.42,3.83,19.97,3.83,29.39,0,4.16-1.68,7.88-4.28,10.89-7.61,3.15-3.28,5.54-7.21,6.99-11.51,1.68-4.96,2.52-10.18,2.47-15.42.07-5.24-.77-10.46-2.47-15.42ZM1307.5,149.85c-2.11-4.58-5.2-8.65-9.04-11.92-3.84-3.43-8.31-6.08-13.16-7.81-4.81-1.94-9.76-3.52-14.8-4.73h-.21l-9.46-1.85c-3.11-.52-6.15-1.42-9.04-2.67-2.51-1.09-4.81-2.62-6.78-4.52-1.32-1.2-2-2.95-1.85-4.73-.09-2.33,1.2-4.5,3.29-5.55,3.61-1.89,7.65-2.82,11.72-2.67,4.27-.18,8.52.74,12.33,2.67,3.32,1.9,6.25,4.41,8.63,7.4l3.49,4.32,26.52-20.14-2.67-4.32c-4.8-8.13-12.18-14.43-20.97-17.88-8.2-3.44-17.01-5.18-25.9-5.14-6.33-.03-12.64.87-18.7,2.67-5.97,1.59-11.61,4.23-16.65,7.81-5.08,3.54-9.3,8.17-12.33,13.57-3.32,5.96-4.95,12.71-4.73,19.53-.18,6.04,1.09,12.03,3.7,17.47,2.36,4.6,5.73,8.61,9.87,11.72,4.11,3.05,8.69,5.41,13.57,6.99,4.66,1.64,9.59,3.08,14.8,4.32h.21l8.84,1.85c2.98.62,5.88,1.58,8.63,2.88,2.29.88,4.33,2.29,5.96,4.11,1.32,1.2,2,2.95,1.85,4.73.04,1.28-.4,2.52-1.23,3.49-1.05,1.42-2.38,2.61-3.91,3.49-2.09,1.03-4.3,1.79-6.58,2.26-2.58.49-5.19.76-7.81.82-4.99.21-9.93-1.08-14.18-3.7-4.28-2.67-8.27-5.77-11.92-9.25l-3.49-3.7-25.69,21.38,3.08,4.32c5.86,8.31,13.9,14.85,23.23,18.91,9.22,3.63,19.08,5.37,28.98,5.14,6.51.07,13-.69,19.32-2.26,6.38-1.31,12.44-3.82,17.88-7.4,5.34-3.66,9.83-8.43,13.16-13.98,3.59-6.32,5.37-13.5,5.14-20.76.13-5.77-.92-11.5-3.08-16.86Z"></path></g></g></svg>